<svg id="Capa_1" enable-background="new 0 0 512 512" viewBox="0 0 512 512" xmlns="http://www.w3.org/2000/svg" width="1em" height="1em" fill="currentColor"><g><circle cx="256" cy="331" r="25"></circle><path d="m227.48 143.32c-2.781 4.173-7.465 6.68-12.48 6.68h-215v347c0 8.284 6.716 15 15 15h482c8.284 0 15-6.716 15-15v-407h-248.973zm73.52 67.68v19.678c6.81 3.058 13.274 6.804 19.348 11.21l17.075-9.858c7.174-4.143 16.348-1.685 20.49 5.49l30 51.961c1.989 3.445 2.528 7.54 1.499 11.382-1.03 3.843-3.544 7.119-6.989 9.108l-16.992 9.811c.379 3.723.569 7.471.569 11.218s-.19 7.495-.569 11.219l16.992 9.811c3.445 1.989 5.959 5.266 6.989 9.108 1.029 3.842.49 7.937-1.499 11.382l-30 51.961c-4.143 7.173-13.317 9.632-20.49 5.49l-17.075-9.858c-6.073 4.406-12.538 8.152-19.348 11.21v19.677c0 8.284-6.716 15-15 15h-60c-8.284 0-15-6.716-15-15v-19.678c-6.81-3.058-13.274-6.804-19.348-11.21l-17.075 9.858c-7.173 4.145-16.348 1.686-20.49-5.49l-30-51.961c-1.989-3.445-2.528-7.54-1.499-11.382 1.03-3.843 3.544-7.119 6.989-9.108l16.992-9.811c-.379-3.723-.569-7.471-.569-11.218s.19-7.495.569-11.219l-16.992-9.811c-3.445-1.989-5.959-5.266-6.989-9.108-1.029-3.842-.49-7.937 1.499-11.382l30-51.961c4.142-7.175 13.316-9.634 20.49-5.49l17.075 9.858c6.073-4.406 12.538-8.152 19.348-11.21v-19.677c0-8.284 6.716-15 15-15h60c8.284 0 15 6.716 15 15z"></path><path d="m185.529 272.993-12.962-7.483-15 25.98 12.855 7.422c5.589 3.227 8.488 9.667 7.197 15.991-1.074 5.264-1.619 10.679-1.619 16.097s.545 10.833 1.62 16.097c1.291 6.324-1.608 12.765-7.197 15.991l-12.855 7.422 15 25.98 12.962-7.483c5.593-3.229 12.626-2.517 17.457 1.771 8.181 7.261 17.518 12.67 27.753 16.079 6.127 2.04 10.261 7.773 10.261 14.231v14.912h30v-14.911c0-6.458 4.134-12.191 10.261-14.231 10.235-3.409 19.572-8.818 27.753-16.079 4.83-4.286 11.865-5 17.457-1.771l12.962 7.483 15-25.98-12.855-7.422c-5.589-3.227-8.488-9.667-7.197-15.991 1.075-5.264 1.62-10.679 1.62-16.097s-.545-10.833-1.62-16.097c-1.291-6.324 1.608-12.765 7.197-15.991l12.855-7.422-15-25.98-12.962 7.483c-5.593 3.229-12.626 2.517-17.457-1.771-8.181-7.261-17.518-12.67-27.753-16.079-6.127-2.04-10.261-7.773-10.261-14.231v-14.913h-30v14.911c0 6.458-4.134 12.191-10.261 14.231-10.235 3.409-19.572 8.818-27.753 16.079-4.831 4.288-11.865 5.001-17.458 1.772zm70.471 3.007c30.327 0 55 24.673 55 55s-24.673 55-55 55-55-24.673-55-55 24.673-55 55-55z"></path><path d="m497 0h-482c-8.284 0-15 6.716-15 15v105h206.973l35.547-53.32c2.781-4.173 7.464-6.68 12.48-6.68h257v-45c0-8.284-6.716-15-15-15zm-422 75c-8.284 0-15-6.716-15-15s6.716-15 15-15 15 6.716 15 15-6.716 15-15 15zm60 0c-8.284 0-15-6.716-15-15s6.716-15 15-15 15 6.716 15 15-6.716 15-15 15zm60 0c-8.284 0-15-6.716-15-15s6.716-15 15-15 15 6.716 15 15-6.716 15-15 15z"></path></g></svg>