<svg version="1.1" id="Layer_1" xmlns="http://www.w3.org/2000/svg" xmlns:xlink="http://www.w3.org/1999/xlink" x="0px" y="0px"
height="1em"	 width="1em" viewBox="0 0 500 500" enable-background="new 0 0 500 500" xml:space="preserve">
<path fill="#0A192F" opacity="1.000000" stroke="none" 
	d="
M278.000000,501.000000 
	C185.333359,501.000000 93.166710,501.000000 1.000049,501.000000 
	C1.000033,334.333405 1.000033,167.666794 1.000016,1.000139 
	C167.666565,1.000093 334.333130,1.000093 500.999756,1.000046 
	C500.999847,167.666519 500.999847,334.333038 500.999939,500.999786 
	C426.833344,501.000000 352.666656,501.000000 278.000000,501.000000 
M259.452454,357.010986 
	C263.078583,357.010986 266.704742,357.010986 270.330872,357.010986 
	C270.348541,356.441742 270.366180,355.872498 270.383820,355.303253 
	C268.861481,355.098358 267.326050,354.962280 265.819122,354.676147 
	C260.477264,353.662079 255.756332,350.733368 255.222443,345.446442 
	C254.338470,336.692657 254.982071,327.784576 254.982071,318.049622 
	C256.233673,320.005676 256.981476,321.404266 257.941589,322.637543 
	C264.157776,330.622253 269.722931,339.265533 276.814819,346.384644 
	C290.928070,360.552032 308.036865,365.641113 327.619019,359.451874 
	C330.607758,358.507202 332.061829,359.561676 333.991241,361.453186 
	C340.406219,367.742096 346.716125,374.200470 353.643433,379.891418 
	C367.737854,391.470398 383.932159,397.060455 402.340973,394.921295 
	C405.691193,394.531982 408.968384,393.513977 412.279266,392.786224 
	C412.185608,392.287659 412.091919,391.789093 411.998260,391.290527 
	C411.087128,391.224854 410.170166,391.057404 409.265747,391.109131 
	C399.290741,391.679535 389.845703,389.344696 381.698669,383.888855 
	C373.306427,378.268829 364.886719,372.255463 357.914062,365.029510 
	C335.014526,341.297882 312.764221,316.939728 290.274902,292.812531 
	C289.308441,291.775665 288.446014,290.641785 287.202637,289.155670 
	C299.311066,288.606720 307.931580,282.995239 314.477173,273.838928 
	C327.300140,255.901367 324.994080,230.221069 309.424377,217.662186 
	C302.288727,211.906418 293.998627,209.109024 284.939850,208.991333 
	C268.447083,208.777008 251.947662,208.690994 235.457260,208.949768 
	C231.316605,209.014755 229.730133,207.560730 228.426666,203.898361 
	C225.978409,197.019516 223.595306,189.960617 219.929352,183.713486 
	C215.767075,176.620575 211.108521,169.368515 205.103180,163.902267 
	C193.013382,152.897751 170.336380,151.928452 156.296906,160.555359 
	C156.055130,160.703918 156.188812,161.463470 156.148697,161.921875 
	C156.532166,162.071579 156.863831,162.337387 157.121948,162.278870 
	C158.415390,161.985657 159.686218,161.594727 160.970993,161.261169 
	C175.646423,157.451050 188.266373,160.331314 198.330261,172.339050 
	C200.458649,174.878540 200.625748,176.827728 199.356934,179.841156 
	C182.906219,218.910904 166.512115,258.005310 150.340988,297.191406 
	C146.395920,306.751190 140.590439,313.333130 129.679398,314.036224 
	C129.329269,314.058777 129.011978,314.590912 128.076263,315.419678 
	C142.845825,315.419678 156.906540,315.419678 170.967255,315.419678 
	C170.177811,314.240967 169.306152,313.998749 168.422165,313.816223 
	C161.958221,312.481323 158.894501,307.915161 161.155273,301.695892 
	C165.863785,288.743134 171.019028,275.952789 175.995102,263.084259 
	C195.437714,263.084259 214.576523,263.084259 234.444839,263.084259 
	C236.414597,270.181366 239.805450,277.284576 240.117920,284.520721 
	C240.929413,303.313782 240.502884,322.166321 240.331146,340.992981 
	C240.258759,348.928772 235.399887,353.809387 227.410400,354.864532 
	C226.305481,355.010437 225.224487,355.337555 224.132401,355.580780 
	C224.197495,356.057526 224.262604,356.534241 224.327698,357.010986 
	C235.708054,357.010986 247.088394,357.010986 259.452454,357.010986 
z"/>
<path fill="#62FAD6" opacity="1.000000" stroke="none" 
	d="
M258.960602,357.010986 
	C247.088394,357.010986 235.708054,357.010986 224.327698,357.010986 
	C224.262604,356.534241 224.197495,356.057526 224.132401,355.580780 
	C225.224487,355.337555 226.305481,355.010437 227.410400,354.864532 
	C235.399887,353.809387 240.258759,348.928772 240.331146,340.992981 
	C240.502884,322.166321 240.929413,303.313782 240.117920,284.520721 
	C239.805450,277.284576 236.414597,270.181366 234.444839,263.084259 
	C214.576523,263.084259 195.437714,263.084259 175.995102,263.084259 
	C171.019028,275.952789 165.863785,288.743134 161.155273,301.695892 
	C158.894501,307.915161 161.958221,312.481323 168.422165,313.816223 
	C169.306152,313.998749 170.177811,314.240967 170.967255,315.419678 
	C156.906540,315.419678 142.845825,315.419678 128.076263,315.419678 
	C129.011978,314.590912 129.329269,314.058777 129.679398,314.036224 
	C140.590439,313.333130 146.395920,306.751190 150.340988,297.191406 
	C166.512115,258.005310 182.906219,218.910904 199.356934,179.841156 
	C200.625748,176.827728 200.458649,174.878540 198.330261,172.339050 
	C188.266373,160.331314 175.646423,157.451050 160.970993,161.261169 
	C159.686218,161.594727 158.415390,161.985657 157.121948,162.278870 
	C156.863831,162.337387 156.532166,162.071579 156.148697,161.921875 
	C156.188812,161.463470 156.055130,160.703918 156.296906,160.555359 
	C170.336380,151.928452 193.013382,152.897751 205.103180,163.902267 
	C211.108521,169.368515 215.767075,176.620575 219.929352,183.713486 
	C223.595306,189.960617 225.978409,197.019516 228.426666,203.898361 
	C229.730133,207.560730 231.316605,209.014755 235.457260,208.949768 
	C251.947662,208.690994 268.447083,208.777008 284.939850,208.991333 
	C293.998627,209.109024 302.288727,211.906418 309.424377,217.662186 
	C324.994080,230.221069 327.300140,255.901367 314.477173,273.838928 
	C307.931580,282.995239 299.311066,288.606720 287.202637,289.155670 
	C288.446014,290.641785 289.308441,291.775665 290.274902,292.812531 
	C312.764221,316.939728 335.014526,341.297882 357.914062,365.029510 
	C364.886719,372.255463 373.306427,378.268829 381.698669,383.888855 
	C389.845703,389.344696 399.290741,391.679535 409.265747,391.109131 
	C410.170166,391.057404 411.087128,391.224854 411.998260,391.290527 
	C412.091919,391.789093 412.185608,392.287659 412.279266,392.786224 
	C408.968384,393.513977 405.691193,394.531982 402.340973,394.921295 
	C383.932159,397.060455 367.737854,391.470398 353.643433,379.891418 
	C346.716125,374.200470 340.406219,367.742096 333.991241,361.453186 
	C332.061829,359.561676 330.607758,358.507202 327.619019,359.451874 
	C308.036865,365.641113 290.928070,360.552032 276.814819,346.384644 
	C269.722931,339.265533 264.157776,330.622253 257.941589,322.637543 
	C256.981476,321.404266 256.233673,320.005676 254.982071,318.049622 
	C254.982071,327.784576 254.338470,336.692657 255.222443,345.446442 
	C255.756332,350.733368 260.477264,353.662079 265.819122,354.676147 
	C267.326050,354.962280 268.861481,355.098358 270.383820,355.303253 
	C270.366180,355.872498 270.348541,356.441742 270.330872,357.010986 
	C266.704742,357.010986 263.078583,357.010986 258.960602,357.010986 
M276.184631,282.040161 
	C293.110016,280.035858 302.958191,272.502930 305.777802,259.109619 
	C307.522675,250.821518 307.098755,242.526443 304.582916,234.436661 
	C300.647675,221.782745 292.369415,215.607147 279.127289,215.371597 
	C272.136597,215.247238 265.141724,215.323654 258.149139,215.368317 
	C256.900574,215.376282 255.653839,215.672638 254.234634,215.858276 
	C254.234634,235.753815 254.220459,255.226273 254.266434,274.698608 
	C254.269501,276.002075 254.578308,277.354889 254.997162,278.599915 
	C262.250641,300.160828 271.237213,320.903778 286.318207,338.256592 
	C291.028809,343.676788 296.891449,348.449188 303.039856,352.177063 
	C310.756409,356.855774 319.565033,358.360168 329.389526,356.342224 
	C323.251587,349.490662 317.721497,343.065216 311.922638,336.892242 
	C295.147308,319.034607 280.025055,299.608185 260.646759,282.080841 
	C265.936676,282.080841 270.596130,282.080841 276.184631,282.040161 
M203.853653,191.434128 
	C195.473770,212.862366 187.093903,234.290619 178.596542,256.019287 
	C196.626251,256.019287 213.830704,256.019287 231.864151,256.019287 
	C223.608414,232.204697 215.564835,209.002045 207.521240,185.799408 
	C207.021606,185.921967 206.521957,186.044510 206.022308,186.167068 
	C205.371353,187.677124 204.720413,189.187195 203.853653,191.434128 
M233.002884,216.598892 
	C235.187302,222.727402 237.371704,228.855896 239.895996,235.937973 
	C241.307907,223.823990 240.667343,215.299484 231.811966,212.457443 
	C232.183853,213.727386 232.496170,214.793930 233.002884,216.598892 
z"/>
<path fill="#0B1C31" opacity="1.000000" stroke="none" 
	d="
M275.720093,282.060486 
	C270.596130,282.080841 265.936676,282.080841 260.646759,282.080841 
	C280.025055,299.608185 295.147308,319.034607 311.922638,336.892242 
	C317.721497,343.065216 323.251587,349.490662 329.389526,356.342224 
	C319.565033,358.360168 310.756409,356.855774 303.039856,352.177063 
	C296.891449,348.449188 291.028809,343.676788 286.318207,338.256592 
	C271.237213,320.903778 262.250641,300.160828 254.997162,278.599915 
	C254.578308,277.354889 254.269501,276.002075 254.266434,274.698608 
	C254.220459,255.226273 254.234634,235.753815 254.234634,215.858276 
	C255.653839,215.672638 256.900574,215.376282 258.149139,215.368317 
	C265.141724,215.323654 272.136597,215.247238 279.127289,215.371597 
	C292.369415,215.607147 300.647675,221.782745 304.582916,234.436661 
	C307.098755,242.526443 307.522675,250.821518 305.777802,259.109619 
	C302.958191,272.502930 293.110016,280.035858 275.720093,282.060486 
z"/>
<path fill="#0B1B30" opacity="1.000000" stroke="none" 
	d="
M203.961563,191.065704 
	C204.720413,189.187195 205.371353,187.677124 206.022308,186.167068 
	C206.521957,186.044510 207.021606,185.921967 207.521240,185.799408 
	C215.564835,209.002045 223.608414,232.204697 231.864151,256.019287 
	C213.830704,256.019287 196.626251,256.019287 178.596542,256.019287 
	C187.093903,234.290619 195.473770,212.862366 203.961563,191.065704 
z"/>
<path fill="#0F2638" opacity="1.000000" stroke="none" 
	d="
M232.905685,216.229691 
	C232.496170,214.793930 232.183853,213.727386 231.811966,212.457443 
	C240.667343,215.299484 241.307907,223.823990 239.895996,235.937973 
	C237.371704,228.855896 235.187302,222.727402 232.905685,216.229691 
z"/>
</svg>